<?xml version="1.0" encoding="UTF-8" standalone="no"?>
<svg width="1440px" height="328px" viewBox="0 0 1440 328" version="1.1" xmlns="http://www.w3.org/2000/svg" xmlns:xlink="http://www.w3.org/1999/xlink" xmlns:sketch="http://www.bohemiancoding.com/sketch/ns">
    <!-- Generator: Sketch 3.4 (15588) - http://www.bohemiancoding.com/sketch -->
    <title>Imported Layers Copy</title>
    <desc>Created with Sketch.</desc>
    <defs></defs>
    <g id="Page-1" stroke="none" stroke-width="1" fill="none" fill-rule="evenodd" sketch:type="MSPage">
        <g id="Home" sketch:type="MSArtboardGroup" transform="translate(0.000000, -1588.000000)">
            <g id="Imported-Layers-Copy" sketch:type="MSLayerGroup" transform="translate(0.000000, 1588.000000)">
                <path d="M1299.83967,185.047019 L1279.76643,188.471622 L1283.30657,208.579785 L1299.83967,185.047019" id="Fill-1" fill="#198FC7" sketch:type="MSShapeGroup"></path>
                <path d="M1194.74813,174.967191 L1202.19596,198.087312 L1205.54844,192.946529 L1210.00641,195.85268 L1215.3653,185.506219 L1194.74813,174.967191" id="Fill-2" fill="#198FC7" sketch:type="MSShapeGroup"></path>
                <path d="M1146.00811,171.327449 L1154.65174,199.106581 L1164.30634,180.911398 L1146.00811,171.327449" id="Fill-3" fill="#198FC7" sketch:type="MSShapeGroup"></path>
                <path d="M1140.79032,189.887312 L1119.60241,189.914822 L1140.70849,211.014039 L1140.79032,189.887312" id="Fill-4" fill="#198FC7" sketch:type="MSShapeGroup"></path>
                <path d="M1079.2062,183.167191 L1060.25045,187.529239 L1063.96908,203.305686 L1066.7748,195.219957 L1070.85181,196.634237 L1079.2062,183.167191" id="Fill-5" fill="#198FC7" sketch:type="MSShapeGroup"></path>
                <path d="M1028.45342,165.080637 L1036.56088,187.874873 L1043.97556,172.435596 L1028.45342,165.080637" id="Fill-6" fill="#198FC7" sketch:type="MSShapeGroup"></path>
                <path d="M982.717368,139.499458 L978.185316,159.781144 L1002.92324,144.122495 L982.717368,139.499458" id="Fill-7" fill="#198FC7" sketch:type="MSShapeGroup"></path>
                <path d="M908.060558,198.173368 L890.876997,205.077591 L914.857931,215.342933 L908.060558,198.173368" id="Fill-8" fill="#198FC7" sketch:type="MSShapeGroup"></path>
                <path d="M822.461635,193.431123 L813.358024,209.627269 L838.569327,202.593256 L822.461635,193.431123" id="Fill-9" fill="#198FC7" sketch:type="MSShapeGroup"></path>
                <path d="M781.297847,183.358348 L785.359339,194.745944 L790.311156,193.531286 L793.532412,206.659045 L789.924549,207.544292 L791.606431,212.260439 L800.994354,192.669316 L781.297847,183.358348" id="Fill-10" fill="#198FC7" sketch:type="MSShapeGroup"></path>
                <path d="M761.097621,194.992826 L751.537559,213.334727 L772.209051,206.856551 L770.517291,199.963613 L761.097621,194.992826" id="Fill-11" fill="#198FC7" sketch:type="MSShapeGroup"></path>
                <path d="M709.440411,133.306254 L693.243827,139.407054 L715.441288,149.488292 L709.440411,133.306254" id="Fill-12" fill="#198FC7" sketch:type="MSShapeGroup"></path>
                <path d="M640.155888,107.278572 L650.942088,130.810632 L657.39236,113.656585 L640.155888,107.278572" id="Fill-13" fill="#198FC7" sketch:type="MSShapeGroup"></path>
                <path d="M580.266343,132.940163 L573.46121,133.493884 L575.220696,153.806606 L588.998163,137.45951 L579.716063,135.166331 L580.266343,132.940163" id="Fill-14" fill="#198FC7" sketch:type="MSShapeGroup"></path>
                <path d="M514.08385,119.946426 L526.101125,142.859166 L531.627209,125.395458 L514.08385,119.946426" id="Fill-15" fill="#198FC7" sketch:type="MSShapeGroup"></path>
                <path d="M436.360285,94.087329 L454.689557,117.634908 L457.387341,96.6817032 L436.360285,94.087329" id="Fill-16" fill="#198FC7" sketch:type="MSShapeGroup"></path>
                <path d="M383.846612,130.413505 L379.076811,152.599708 L405.950949,135.284129 L383.846612,130.413505" id="Fill-17" fill="#198FC7" sketch:type="MSShapeGroup"></path>
                <path d="M320.751332,110.030951 L315.669,112.010942 L317.935026,116.760946 L314.430869,118.431983 L330.417923,125.475871 L325.770171,113.362443 C323.825141,112.902538 322.027559,111.773935 320.754859,110.035183 C320.753448,110.033772 320.752743,110.032361 320.751332,110.030951" id="Fill-18" fill="#198FC7" sketch:type="MSShapeGroup"></path>
                <path d="M302.242866,161.929015 L286.224065,164.282856 L290.413956,166.145049 L286.375039,175.229591 L287.411401,182.033652 L302.242866,161.929015" id="Fill-19" fill="#198FC7" sketch:type="MSShapeGroup"></path>
                <path d="M239.795223,150.257153 L250.337324,180.399295 L260.232492,160.071759 L239.795223,150.257153" id="Fill-20" fill="#198FC7" sketch:type="MSShapeGroup"></path>
                <path d="M220.51707,219.123751 L217.038311,233.384344 L217.330383,237.183501 L239.37052,223.825789 L220.51707,219.123751" id="Fill-21" fill="#198FC7" sketch:type="MSShapeGroup"></path>
                <path d="M151.861842,197.608361 L145.288109,216.468714 L170.639099,204.261471 L151.861842,197.608361" id="Fill-22" fill="#198FC7" sketch:type="MSShapeGroup"></path>
                <path d="M137.745741,260.317024 L122.515676,268.4352 L145.763608,275.545394 L137.745741,260.317024" id="Fill-23" fill="#198FC7" sketch:type="MSShapeGroup"></path>
                <path d="M55.6643798,256.474133 L39.1087031,262.912103 L62.0003636,273.015209 L55.6643798,256.474133" id="Fill-24" fill="#198FC7" sketch:type="MSShapeGroup"></path>
                <path d="M1435.8224,78.4131613 C1435.15007,78.4131613 1434.46504,78.5182624 1433.7913,78.7404559 C1430.3845,79.8612989 1428.53189,83.5306667 1429.65291,86.9376344 C1430.55241,89.6688516 1433.09216,91.4012559 1435.82028,91.4012559 C1436.49332,91.4012559 1437.17764,91.2954495 1437.85138,91.0739613 C1441.25818,89.9531183 1443.1115,86.2830452 1441.98977,82.8767828 C1441.09028,80.1448602 1438.55052,78.4124559 1435.8224,78.4131613" id="Fill-32" fill="#30A0D7" sketch:type="MSShapeGroup"></path>
                <path d="M1395.37045,106.194409 C1394.89707,106.194409 1394.41592,106.238847 1393.93337,106.329135 C1389.74983,107.117746 1386.99702,111.147561 1387.78646,115.330443 C1388.48489,119.030142 1391.71885,121.611114 1395.35211,121.611114 C1395.82619,121.611114 1396.30663,121.566675 1396.78918,121.476387 C1400.97202,120.687776 1403.72342,116.657961 1402.93539,112.47508 C1402.23837,108.77397 1399.00442,106.194409 1395.37045,106.194409" id="Fill-33" fill="#30A0D7" sketch:type="MSShapeGroup"></path>
                <path d="M1343.62787,130.688602 C1340.19074,130.689308 1337.01816,132.930288 1335.98956,136.393686 C1334.73803,140.612542 1337.14374,145.048654 1341.36396,146.301402 C1342.12025,146.525712 1342.88288,146.632224 1343.63422,146.632224 C1347.07136,146.632224 1350.24464,144.391243 1351.27254,140.927845 C1352.52478,136.708284 1350.11907,132.272172 1345.89884,131.020129 C1345.14256,130.795819 1344.37922,130.688602 1343.62787,130.688602" id="Fill-34" fill="#30A0D7" sketch:type="MSShapeGroup"></path>
                <path d="M1301.47781,199.205333 C1298.39272,199.205333 1295.44166,200.972301 1294.07796,203.962391 C1292.25427,207.963286 1293.94744,212.670968 1297.85725,214.609342 L1306.60812,202.299819 L1308.82899,203.878452 C1308.03885,202.194013 1306.6695,200.771269 1304.84299,199.938925 C1303.75019,199.440929 1302.60589,199.205333 1301.47781,199.205333" id="Fill-35" fill="#30A0D7" sketch:type="MSShapeGroup"></path>
                <path d="M1266.87718,87.3150108 C1262.92856,87.3150108 1259.38067,90.0645677 1258.5242,94.0802753 C1257.53934,98.6969634 1260.48475,103.238882 1265.10217,104.223587 C1265.70325,104.351966 1266.3022,104.413333 1266.8934,104.413333 C1270.84131,104.413333 1274.38991,101.662366 1275.24567,97.6466581 C1276.23053,93.0299699 1273.28653,88.4894624 1268.66912,87.504757 C1268.06733,87.3763785 1267.46767,87.3150108 1266.87718,87.3150108" id="Fill-36" fill="#30A0D7" sketch:type="MSShapeGroup"></path>
                <path d="M1220.48431,78.3941161 C1219.79505,78.3941161 1219.09521,78.4625376 1218.39254,78.6043183 C1212.71549,79.7533763 1209.04483,85.2863484 1210.19478,90.9625118 C1211.20151,95.9368258 1215.57483,99.3698925 1220.46244,99.3698925 C1221.15241,99.3698925 1221.85226,99.3021763 1222.55422,99.1596903 C1228.23198,98.0113376 1231.90122,92.4783656 1230.75269,86.8014968 C1229.74596,81.8271828 1225.37193,78.3941161 1220.48431,78.3941161" id="Fill-37" fill="#30A0D7" sketch:type="MSShapeGroup"></path>
                <path d="M1187.44774,61.352929 C1182.65537,61.352929 1178.59952,65.0491011 1178.23055,69.9063226 C1177.84324,75.0012559 1181.66133,79.4458323 1186.75778,79.8323785 C1186.99623,79.8507183 1187.23257,79.8598882 1187.4675,79.8598882 C1192.25987,79.8598882 1196.31713,76.1637161 1196.6861,71.3064946 C1197.07271,66.2115613 1193.25461,61.7676903 1188.15817,61.3797333 C1187.91971,61.3620989 1187.68267,61.352929 1187.44774,61.352929" id="Fill-38" fill="#30A0D7" sketch:type="MSShapeGroup"></path>
                <path d="M1135.71998,139.922684 L1134.41765,144.959776 L1124.3574,142.360465 C1123.86991,144.930856 1125.02761,147.63809 1127.42768,149.007226 C1128.41395,149.569411 1129.487,149.836748 1130.54594,149.836748 C1132.73577,149.836748 1134.86352,148.694039 1136.02687,146.656912 C1137.27417,144.472361 1137.07029,141.85612 1135.71998,139.922684" id="Fill-39" fill="#30A0D7" sketch:type="MSShapeGroup"></path>
                <path d="M1088.6428,116.067561 C1087.66429,116.067561 1086.67167,116.304568 1085.75171,116.803269 C1082.79925,118.403062 1081.70362,122.092886 1083.30437,125.045591 C1084.40493,127.07637 1086.49529,128.228955 1088.65409,128.228955 C1089.6326,128.228955 1090.62592,127.991948 1091.54659,127.492542 C1094.49835,125.892043 1095.59467,122.202925 1093.99533,119.25163 C1092.89407,117.220146 1090.8023,116.067561 1088.6428,116.067561" id="Fill-40" fill="#30A0D7" sketch:type="MSShapeGroup"></path>
                <path d="M1030.33284,79.4606452 C1030.17411,79.4606452 1030.01467,79.464172 1029.85452,79.4712258 C1024.23602,79.7300989 1019.89162,84.4935054 1020.15054,90.1111226 C1020.40169,95.5700301 1024.90694,99.8248602 1030.3152,99.8248602 C1030.47323,99.8248602 1030.63267,99.8213333 1030.79211,99.8142796 C1036.41062,99.5554065 1040.75501,94.7905892 1040.49609,89.172972 C1040.24494,83.7161806 1035.7404,79.4599398 1030.33284,79.4606452" id="Fill-41" fill="#30A0D7" sketch:type="MSShapeGroup"></path>
                <path d="M967.225567,107.57483 C965.113337,107.57483 962.992642,108.322529 961.295238,109.84191 C957.633758,113.116972 957.321932,118.740232 960.597511,122.401135 C962.354881,124.364198 964.787402,125.364422 967.231211,125.364422 C969.342735,125.364422 971.462725,124.616723 973.160128,123.098047 C976.821609,119.821574 977.133434,114.198314 973.85715,110.537411 C972.09978,108.574348 969.667965,107.574125 967.225567,107.57483" id="Fill-42" fill="#30A0D7" sketch:type="MSShapeGroup"></path>
                <path d="M947.852878,16.9092817 C942.529269,16.9099871 938.203925,21.2170151 938.186993,26.5440172 C938.169356,31.8830108 942.483413,36.2246022 947.822542,36.2408258 L947.854995,36.2408258 C953.180015,36.2408258 957.504654,31.9337978 957.521585,26.6067957 C957.539223,21.2685075 953.224461,16.9269161 947.885331,16.9092817 L947.852878,16.9092817" id="Fill-43" fill="#30A0D7" sketch:type="MSShapeGroup"></path>
                <path d="M903.735919,0.455673118 C901.435324,0.455673118 899.134024,1.32610753 897.369599,3.0712086 C893.812531,6.58750968 893.780784,12.3201032 897.29764,15.8766108 C899.068413,17.6668559 901.402166,18.5640946 903.736625,18.5640946 C906.03722,18.5640946 908.33852,17.6929548 910.10365,15.9478538 C913.659307,12.4315527 913.691054,6.69895914 910.17561,3.14315699 C908.40413,1.35220645 906.070377,0.455673118 903.735919,0.455673118" id="Fill-44" fill="#30A0D7" sketch:type="MSShapeGroup"></path>
                <path d="M842.224458,59.4857978 C841.167638,59.4857978 840.091064,59.6713118 839.042709,60.0613849 C834.31947,61.8191828 831.915874,67.0728258 833.673949,71.7939097 C835.041889,75.4675097 838.524176,77.7374108 842.22728,77.7374108 C843.284101,77.7374108 844.359969,77.5526022 845.408324,77.1618237 C850.131563,75.4040258 852.535159,70.1510882 850.777084,65.4285935 C849.409849,61.7556989 845.926857,59.4857978 842.224458,59.4857978" id="Fill-45" fill="#30A0D7" sketch:type="MSShapeGroup"></path>
                <path d="M797.137454,99.6337032 C795.903556,99.6337032 794.651315,99.9426581 793.49996,100.59231 C789.935837,102.604748 788.677952,107.1248 790.689297,110.688361 C792.051594,113.101454 794.56454,114.457892 797.151563,114.457892 C798.384756,114.457892 799.636291,114.148938 800.787646,113.499286 C804.352475,111.486847 805.610359,106.96609 803.597603,103.401824 C802.235307,100.989437 799.723771,99.6337032 797.137454,99.6337032" id="Fill-46" fill="#30A0D7" sketch:type="MSShapeGroup"></path>
                <path d="M748.06515,6.82451613 C744.587096,6.82522151 741.202872,8.62886882 739.336857,11.856671 C736.553004,16.6715699 738.200317,22.8309161 743.015975,25.6143312 C744.603322,26.5320258 746.336,26.9679484 748.046807,26.9679484 C751.524861,26.9679484 754.909084,25.1635957 756.775099,21.9357935 C759.559659,17.1208946 757.91164,10.960843 753.095981,8.17813333 C751.508634,7.26043871 749.775251,6.82451613 748.06515,6.82451613" id="Fill-47" fill="#30A0D7" sketch:type="MSShapeGroup"></path>
                <path d="M676.739651,95.1404559 C674.647175,95.1404559 672.607611,96.2119226 671.461193,98.1397161 C669.729927,101.052215 670.687274,104.815398 673.599526,106.544981 C674.58227,107.129738 675.662372,107.407656 676.728364,107.407656 C678.820134,107.407656 680.858288,106.336189 682.005411,104.40769 C683.736677,101.496602 682.77933,97.7334194 679.867078,96.0024258 C678.884334,95.4183742 677.804938,95.1404559 676.739651,95.1404559" id="Fill-48" fill="#30A0D7" sketch:type="MSShapeGroup"></path>
                <path d="M629.082555,4.3683957 C624.932878,4.3683957 621.043525,6.94654624 619.570467,11.0793462 C617.699514,16.3308731 620.441038,22.1064946 625.694099,23.9778581 C626.814413,24.3763957 627.958008,24.5661419 629.082555,24.5661419 C633.232939,24.5661419 637.122292,21.9879914 638.593939,17.8551914 C640.464892,12.6029591 637.724073,6.82804301 632.470307,4.95667957 C631.350698,4.55743656 630.207103,4.3683957 629.082555,4.3683957" id="Fill-49" fill="#30A0D7" sketch:type="MSShapeGroup"></path>
                <path d="M571.575442,72.9161634 C567.205652,72.9161634 563.50537,76.2836301 563.163914,80.7140989 C563.109591,81.4237075 563.144866,82.1206194 563.259155,82.792843 L563.875751,83.9644731 L563.597083,84.1111914 C564.660959,87.1965075 567.474443,89.5143742 570.937681,89.7795957 C571.157794,89.7965247 571.3772,89.8049892 571.59449,89.8049892 C575.96428,89.8049892 579.664563,86.438228 580.004608,82.0091699 C580.362995,77.359329 576.883531,73.2998882 572.232957,72.941557 C572.012844,72.924628 571.792732,72.9161634 571.575442,72.9161634" id="Fill-50" fill="#30A0D7" sketch:type="MSShapeGroup"></path>
                <path d="M536.119754,107.679931 C534.272082,107.679931 532.409595,108.273153 530.839179,109.497686 C527.097979,112.417239 526.431293,117.816189 529.3506,121.557505 C531.044476,123.729359 533.57506,124.86572 536.131747,124.86572 C537.980124,124.86572 539.841906,124.271794 541.411616,123.047966 C545.153522,120.127708 545.821619,114.729462 542.9009,110.988146 C541.206319,108.815587 538.676441,107.679931 536.119754,107.679931" id="Fill-51" fill="#30A0D7" sketch:type="MSShapeGroup"></path>
                <path d="M486.357483,72.1508301 C482.892128,72.1508301 479.644063,74.3043441 478.415809,77.7557505 C476.855271,82.1396645 479.145283,86.9602065 483.529889,88.5212043 C484.46466,88.8534366 485.418479,89.0114409 486.356072,89.0114409 C489.822132,89.0114409 493.070197,86.8579269 494.298451,83.4079312 C495.858989,79.0219011 493.568977,74.2027699 489.182961,72.6410667 C488.248895,72.3088344 487.295781,72.1508301 486.357483,72.1508301" id="Fill-52" fill="#30A0D7" sketch:type="MSShapeGroup"></path>
                <path d="M425.311644,29.1017118 C423.778619,29.1017118 422.230074,29.5566796 420.879771,30.504 C417.386197,32.9558882 416.542433,37.774314 418.994003,41.2666323 C420.498102,43.4088602 422.892527,44.5543914 425.325048,44.5543914 C426.858073,44.5543914 428.406618,44.0994237 429.756921,43.1521032 C433.251201,40.7002151 434.094964,35.8817892 431.6441,32.389471 C430.140001,30.247243 427.744871,29.1010065 425.311644,29.1017118" id="Fill-53" fill="#30A0D7" sketch:type="MSShapeGroup"></path>
                <path d="M387.822035,81.0117677 C383.775358,81.0117677 379.960081,83.4735312 378.430584,87.4779527 C376.450986,92.6617634 379.049297,98.4691269 384.23463,100.449118 C385.4135,100.899854 386.624822,101.112877 387.816391,101.112877 C391.863068,101.112877 395.678344,98.651114 397.207841,94.6466925 C399.187439,89.4628817 396.589834,83.6555183 391.403795,81.6748215 C390.22422,81.2247914 389.013603,81.0117677 387.822035,81.0117677" id="Fill-54" fill="#30A0D7" sketch:type="MSShapeGroup"></path>
                <path d="M327.770933,96.192172 C325.986755,96.192172 324.186351,96.7388387 322.6371,97.8737892 C318.759035,100.710813 317.916683,106.152086 320.751332,110.030951 L324.005746,108.763389 L325.770171,113.362443 C326.429801,113.519037 327.106364,113.598039 327.785749,113.598039 C329.569221,113.598039 331.36892,113.051372 332.918876,111.917832 C336.796941,109.078692 337.639999,103.633187 334.801117,99.7557333 C333.095953,97.4265806 330.451786,96.192172 327.770933,96.192172" id="Fill-55" fill="#30A0D7" sketch:type="MSShapeGroup"></path>
                <path d="M324.005746,108.763389 L320.751332,110.030951 C320.752743,110.032361 320.753448,110.033772 320.754859,110.035183 C322.027559,111.773935 323.825141,112.902538 325.770171,113.362443 L324.005746,108.763389" id="Fill-56" fill="#055AA8" sketch:type="MSShapeGroup"></path>
                <path d="M313.675292,195.594512 C311.630789,195.594512 309.578525,196.32246 307.941089,197.800224 C304.429172,200.967363 304.151915,206.381832 307.319554,209.89249 C309.011313,211.76597 311.340833,212.718228 313.680936,212.718228 C315.725439,212.718228 317.776996,211.99028 319.413728,210.512516 C322.925645,207.345376 323.203607,201.930908 320.035262,198.420249 C318.344914,196.547475 316.014689,195.594512 313.675292,195.594512" id="Fill-57" fill="#30A0D7" sketch:type="MSShapeGroup"></path>
                <path d="M224.616658,138.964077 C222.781685,138.964077 220.945301,139.660989 219.541381,141.056224 C216.720136,143.859389 216.706026,148.418942 219.509634,151.238331 C220.917081,152.654022 222.767575,153.362925 224.618069,153.362925 C226.453748,153.362925 228.289426,152.666013 229.693347,151.270073 C232.513886,148.467613 232.527996,143.908766 229.724388,141.088671 C228.31694,139.672275 226.467152,138.963372 224.616658,138.964077" id="Fill-58" fill="#30A0D7" sketch:type="MSShapeGroup"></path>
                <path d="M193.855284,209.441049 C189.304184,209.441049 185.416242,212.905858 184.981661,217.527484 C184.518861,222.432671 188.121786,226.784138 193.027747,227.246159 C193.312058,227.272963 193.594959,227.286366 193.874332,227.286366 C198.426138,227.286366 202.31408,223.821557 202.74866,219.199931 C203.21146,214.294744 199.608535,209.943277 194.701163,209.481256 C194.416852,209.454452 194.134657,209.441049 193.855284,209.441049" id="Fill-59" fill="#30A0D7" sketch:type="MSShapeGroup"></path>
                <path d="M135.507935,220.507699 C132.212602,220.507699 129.308816,222.896103 128.76559,226.252989 C128.161693,229.980903 130.695099,233.492267 134.422895,234.095363 C134.79257,234.15532 135.160835,234.184241 135.524161,234.184241 C138.819493,234.184241 141.721869,231.795837 142.266506,228.438951 C142.870403,224.711037 140.336997,221.200378 136.609201,220.596576 C136.23882,220.536619 135.871261,220.507699 135.507935,220.507699" id="Fill-60" fill="#30A0D7" sketch:type="MSShapeGroup"></path>
                <path d="M48.50227,197.169617 C45.7466356,199.033222 44.7772957,202.711759 46.3653482,205.720895 C47.5498618,207.965402 49.8434019,209.246366 52.2159566,209.246366 C53.2205709,209.246366 54.2392949,209.016413 55.1938196,208.53323 L48.50227,197.169617" id="Fill-61" fill="#30A0D7" sketch:type="MSShapeGroup"></path>
                <path d="M8.59001658,236.363854 C4.62658745,236.363854 1.1005606,239.180422 0.344983419,243.21588 C-0.508656534,247.774022 2.49460403,252.160757 7.05275918,253.014262 C7.57552546,253.11231 8.09476431,253.158865 8.60835926,253.158865 C12.5703774,253.158865 16.0971098,250.342297 16.8526869,246.306839 C17.7063269,241.748697 14.7030663,237.361961 10.1449112,236.508456 C9.62214489,236.410409 9.10290604,236.363854 8.59001658,236.363854" id="Fill-62" fill="#30A0D7" sketch:type="MSShapeGroup"></path>
                <path d="M1308.82899,203.878452 C1309.8061,205.961428 1309.8964,208.444353 1308.8678,210.702262 C1307.50479,213.693058 1304.55374,215.45932 1301.46864,215.45932 C1300.34127,215.45932 1299.19486,215.223725 1298.10206,214.725024 C1298.01951,214.687639 1297.93838,214.648843 1297.85725,214.609342 L1297.04453,215.752757 L1317.70403,230.43446 L1327.26762,216.982228 L1308.82899,203.878452" id="Fill-63" fill="#53B1DE" sketch:type="MSShapeGroup"></path>
                <path d="M1306.60812,202.299819 L1297.85725,214.609342 C1297.93838,214.648843 1298.01951,214.687639 1298.10206,214.725024 C1299.19486,215.223725 1300.34127,215.45932 1301.46864,215.45932 C1304.55374,215.45932 1307.50479,213.693058 1308.8678,210.702262 C1309.8964,208.444353 1309.8061,205.961428 1308.82899,203.878452 L1306.60812,202.299819" id="Fill-64" fill="#106FBB" sketch:type="MSShapeGroup"></path>
                <path d="M1264.95402,119.057652 L1255.45392,136.553101 L1282.32171,151.138168 L1291.82251,133.643424 L1264.95402,119.057652" id="Fill-65" fill="#53B1DE" sketch:type="MSShapeGroup"></path>
                <path d="M1210.00641,195.85268 L1204.74771,206.008688 L1202.19596,198.087312 L1196.15487,207.351725 L1218.27614,221.773849 L1227.67112,207.368654 L1210.00641,195.85268" id="Fill-66" fill="#53B1DE" sketch:type="MSShapeGroup"></path>
                <path d="M1205.54844,192.946529 L1202.19596,198.087312 L1204.74771,206.008688 L1210.00641,195.85268 L1205.54844,192.946529" id="Fill-67" fill="#0763AD" sketch:type="MSShapeGroup"></path>
                <path d="M1177.89191,215.373265 L1152.56703,221.265273 L1156.40488,237.756267 L1181.73047,231.862847 L1177.89191,215.373265" id="Fill-68" fill="#53B1DE" sketch:type="MSShapeGroup"></path>
                <path d="M1116.66053,125.542176 L1113.06748,139.444439 L1124.3574,142.360465 C1124.48368,141.692473 1124.72143,141.033652 1125.077,140.410099 C1126.23964,138.372267 1128.3681,137.230262 1130.55793,137.229557 C1131.61687,137.229557 1132.68991,137.496895 1133.67548,138.059785 C1134.51431,138.53803 1135.20145,139.179923 1135.71998,139.922684 L1138.0107,131.057514 L1116.66053,125.542176" id="Fill-69" fill="#53B1DE" sketch:type="MSShapeGroup"></path>
                <path d="M1130.55793,137.229557 C1128.3681,137.230262 1126.23964,138.372267 1125.077,140.410099 C1124.72143,141.033652 1124.48368,141.692473 1124.3574,142.360465 L1134.41765,144.959776 L1135.71998,139.922684 C1135.20145,139.179923 1134.51431,138.53803 1133.67548,138.059785 C1132.68991,137.496895 1131.61687,137.229557 1130.55793,137.229557" id="Fill-70" fill="#106FBB" sketch:type="MSShapeGroup"></path>
                <path d="M1070.85181,196.634237 L1064.72465,206.511622 L1063.96908,203.305686 L1061.83992,209.441049 L1083.6804,217.018202 L1088.61528,202.79711 L1070.85181,196.634237" id="Fill-71" fill="#53B1DE" sketch:type="MSShapeGroup"></path>
                <path d="M1066.7748,195.219957 L1063.96908,203.305686 L1064.72465,206.511622 L1070.85181,196.634237 L1066.7748,195.219957" id="Fill-72" fill="#0763AD" sketch:type="MSShapeGroup"></path>
                <path d="M1041.03509,102.548318 L1025.08966,105.734503 L1027.1645,116.118348 L1043.10993,112.932163 L1041.03509,102.548318" id="Fill-73" fill="#53B1DE" sketch:type="MSShapeGroup"></path>
                <path d="M982.093717,227.945892 L970.169567,240.365454 L989.243128,258.670675 L1001.16587,246.251114 L982.093717,227.945892" id="Fill-74" fill="#53B1DE" sketch:type="MSShapeGroup"></path>
                <path d="M938.046601,207.233222 L917.646723,212.405746 L921.016837,225.690099 L941.41601,220.517574 L938.046601,207.233222" id="Fill-75" fill="#53B1DE" sketch:type="MSShapeGroup"></path>
                <path d="M879.034683,147.284697 L875.316058,163.216327 L899.783072,168.926348 L903.502403,152.994013 L879.034683,147.284697" id="Fill-76" fill="#53B1DE" sketch:type="MSShapeGroup"></path>
                <path d="M851.661765,164.574176 L831.234373,164.766039 L831.35995,178.06732 L851.785931,177.874753 L851.661765,164.574176" id="Fill-77" fill="#53B1DE" sketch:type="MSShapeGroup"></path>
                <path d="M785.359339,194.745944 L770.152554,198.47668 L770.517291,199.963613 L779.342235,204.620508 L772.209051,206.856551 L773.373105,211.603028 L789.924549,207.544292 L785.359339,194.745944" id="Fill-78" fill="#53B1DE" sketch:type="MSShapeGroup"></path>
                <path d="M790.311156,193.531286 L785.359339,194.745944 L789.924549,207.544292 L793.532412,206.659045 L790.311156,193.531286" id="Fill-79" fill="#0763AD" sketch:type="MSShapeGroup"></path>
                <path d="M770.517291,199.963613 L772.209051,206.856551 L779.342235,204.620508 L770.517291,199.963613" id="Fill-80" fill="#0763AD" sketch:type="MSShapeGroup"></path>
                <path d="M732.907749,170.299011 L726.781295,178.362873 L739.165424,187.768361 L745.291878,179.704499 L732.907749,170.299011" id="Fill-81" fill="#53B1DE" sketch:type="MSShapeGroup"></path>
                <path d="M710.897243,62.0371441 L699.524783,69.119828 L710.403402,86.5814194 L721.775861,79.4980301 L710.897243,62.0371441" id="Fill-82" fill="#53B1DE" sketch:type="MSShapeGroup"></path>
                <path d="M649.96922,77.0715355 L647.983978,88.4767656 L665.499118,91.5254022 L667.485066,80.120172 L649.96922,77.0715355" id="Fill-83" fill="#53B1DE" sketch:type="MSShapeGroup"></path>
                <path d="M583.400825,120.254675 L580.266343,132.940163 L593.731279,131.844714 L588.998163,137.45951 L602.618306,140.824155 L606.302362,125.911088 L583.400825,120.254675" id="Fill-84" fill="#53B1DE" sketch:type="MSShapeGroup"></path>
                <path d="M593.731279,131.844714 L580.266343,132.940163 L579.716063,135.166331 L588.998163,137.45951 L593.731279,131.844714" id="Fill-85" fill="#0763AD" sketch:type="MSShapeGroup"></path>
                <path d="M552.707883,62.7255914 L538.872566,69.9987269 L550.041845,91.2369032 L563.597083,84.1111914 C563.450342,83.6851441 563.336758,83.2442839 563.259155,82.792843 L552.707883,62.7255914" id="Fill-86" fill="#53B1DE" sketch:type="MSShapeGroup"></path>
                <path d="M563.259155,82.792843 C563.336758,83.2442839 563.450342,83.6851441 563.597083,84.1111914 L563.875751,83.9644731 L563.259155,82.792843" id="Fill-87" fill="#106FBB" sketch:type="MSShapeGroup"></path>
                <path d="M495.078015,94.152929 L484.718635,105.003733 L501.382251,120.907854 L511.740925,110.057755 L495.078015,94.152929" id="Fill-88" fill="#53B1DE" sketch:type="MSShapeGroup"></path>
                <path d="M444.52207,80.1540301 L443.513929,90.6909419 L459.694991,92.2371269 L460.702428,81.7002151 L444.52207,80.1540301" id="Fill-89" fill="#53B1DE" sketch:type="MSShapeGroup"></path>
                <path d="M418.275816,98.7082495 L396.161603,99.329686 L396.565142,113.729239 L418.679355,113.108508 L418.275816,98.7082495" id="Fill-90" fill="#53B1DE" sketch:type="MSShapeGroup"></path>
                <path d="M356.880056,71.0913548 L346.879064,76.9868903 L355.932586,92.3394065 L365.932872,86.443871 L356.880056,71.0913548" id="Fill-91" fill="#53B1DE" sketch:type="MSShapeGroup"></path>
                <path d="M306.60419,93.0010495 L291.126498,100.379991 L302.458745,124.139888 L314.430869,118.431983 L307.277931,115.280361 L315.669,112.010942 L306.60419,93.0010495" id="Fill-92" fill="#53B1DE" sketch:type="MSShapeGroup"></path>
                <path d="M315.669,112.010942 L307.277931,115.280361 L314.430869,118.431983 L317.935026,116.760946 L315.669,112.010942" id="Fill-93" fill="#0763AD" sketch:type="MSShapeGroup"></path>
                <path d="M264.325026,154.548662 L256.772076,171.537652 L282.861006,183.134039 L286.375039,175.229591 L284.74113,164.500817 L286.224065,164.282856 L264.325026,154.548662" id="Fill-94" fill="#53B1DE" sketch:type="MSShapeGroup"></path>
                <path d="M286.224065,164.282856 L284.74113,164.500817 L286.375039,175.229591 L290.413956,166.145049 L286.224065,164.282856" id="Fill-95" fill="#0763AD" sketch:type="MSShapeGroup"></path>
                <path d="M201.618469,134.173161 L190.788529,141.50837 L202.053755,158.133385 L212.882283,150.798882 L201.618469,134.173161" id="Fill-96" fill="#53B1DE" sketch:type="MSShapeGroup"></path>
                <path d="M216.573394,227.354082 L189.279492,229.454692 L190.648843,247.226649 L217.941335,245.126039 L217.330383,237.183501 L215.899654,238.050409 L217.038311,233.384344 L216.573394,227.354082" id="Fill-97" fill="#53B1DE" sketch:type="MSShapeGroup"></path>
                <path d="M217.038311,233.384344 L215.899654,238.050409 L217.330383,237.183501 L217.038311,233.384344" id="Fill-98" fill="#0763AD" sketch:type="MSShapeGroup"></path>
                <path d="M128.437538,181.125832 L108.366417,181.544826 L108.638735,194.614039 L128.709151,194.195751 L128.437538,181.125832" id="Fill-99" fill="#53B1DE" sketch:type="MSShapeGroup"></path>
                <path d="M61.0620651,181.172387 L44.7399049,190.781729 L48.50227,197.169617 C48.701923,197.03489 48.9100418,196.909333 49.1280375,196.794357 C50.1107817,196.276611 51.1654856,196.030434 52.2046688,196.030434 C54.5772235,196.030434 56.870058,197.312103 58.0545717,199.556611 C59.7576186,202.783708 58.5201934,206.78037 55.2932933,208.481738 C55.2601354,208.499372 55.2269775,208.516301 55.1938196,208.53323 L59.4972937,215.840224 L75.819454,206.229471 L61.0620651,181.172387" id="Fill-100" fill="#53B1DE" sketch:type="MSShapeGroup"></path>
                <path d="M52.2046688,196.030434 C51.1654856,196.030434 50.1107817,196.276611 49.1280375,196.794357 C48.9100418,196.909333 48.701923,197.03489 48.50227,197.169617 L55.1938196,208.53323 C55.2269775,208.516301 55.2601354,208.499372 55.2932933,208.481738 C58.5201934,206.78037 59.7576186,202.783708 58.0545717,199.556611 C56.870058,197.312103 54.5772235,196.030434 52.2046688,196.030434" id="Fill-101" fill="#106FBB" sketch:type="MSShapeGroup"></path>
                <path d="M81.0739254,310.977858 L79.9380904,325.880344 L102.824107,327.623329 L103.959942,312.721548 L81.0739254,310.977858" id="Fill-102" fill="#53B1DE" sketch:type="MSShapeGroup"></path>
            </g>
        </g>
    </g>
</svg>