<?xml version="1.0" encoding="UTF-8" standalone="no"?>
<svg width="16px" height="14px" viewBox="0 0 16 14" version="1.1" xmlns="http://www.w3.org/2000/svg" xmlns:xlink="http://www.w3.org/1999/xlink" xmlns:sketch="http://www.bohemiancoding.com/sketch/ns">
    <!-- Generator: Sketch 3.4 (15588) - http://www.bohemiancoding.com/sketch -->
    <title>Fill 2</title>
    <desc>Created with Sketch.</desc>
    <defs></defs>
    <g id="Page-1" stroke="none" stroke-width="1" fill="none" fill-rule="evenodd" sketch:type="MSPage">
        <g id="Home" sketch:type="MSArtboardGroup" transform="translate(-1238.000000, -34.000000)" fill="#909090">
            <g id="header" sketch:type="MSLayerGroup">
                <g id="Imported-Layers" transform="translate(1194.000000, 32.000000)" sketch:type="MSShapeGroup">
                    <path d="M55.078,2.04 C53.265,2.04 51.796,3.509 51.796,5.322 C51.796,5.579 51.825,5.83 51.881,6.07 C49.153,5.934 46.733,4.627 45.115,2.641 C44.833,3.126 44.67,3.689 44.67,4.291 C44.67,5.43 45.249,6.434 46.13,7.023 C45.592,7.006 45.087,6.858 44.643,6.612 L44.643,6.654 C44.643,8.244 45.776,9.571 47.276,9.873 C47.001,9.948 46.712,9.988 46.412,9.988 C46.2,9.988 45.995,9.967 45.794,9.929 C46.211,11.233 47.424,12.182 48.86,12.208 C47.737,13.089 46.323,13.613 44.784,13.613 C44.519,13.613 44.258,13.598 44,13.568 C45.453,14.499 47.178,15.042 49.033,15.042 C55.071,15.042 58.373,10.041 58.373,5.703 C58.373,5.561 58.37,5.419 58.363,5.278 C59.004,4.815 59.561,4.237 60,3.579 C59.413,3.84 58.78,4.017 58.116,4.096 C58.794,3.69 59.313,3.046 59.559,2.28 C58.924,2.656 58.221,2.929 57.474,3.076 C56.876,2.439 56.022,2.04 55.078,2.04" id="Fill-2"></path>
                </g>
            </g>
        </g>
    </g>
</svg>